<?xml version="1.0" encoding="utf-8"?>
<!-- Generator: Adobe Illustrator 23.1.1, SVG Export Plug-In . SVG Version: 6.00 Build 0)  -->
<svg version="1.1" id="Layer_1" xmlns="http://www.w3.org/2000/svg" xmlns:xlink="http://www.w3.org/1999/xlink" x="0px" y="0px"
	 viewBox="0 0 640 640" style="enable-background:new 0 0 640 640;" xml:space="preserve">
<g>
	<path d="M640,640H0V0h640V640z M50,589.9h540V50.1H50V589.9z"/>
</g>
<polygon points="570.6,193.7 525.3,148.8 570.1,103.5 534.6,68.4 489.8,113.6 444.5,68.8 409.3,104.3 454.6,149.2 409.7,194.5 
	445.2,229.7 490.1,184.3 535.5,229.2 "/>
<g>
	<path d="M194,36.3h51.7v99.9c0,9.9-1.5,19.3-4.6,28.1c-3.1,8.8-7.9,16.5-14.5,23.1c-6.6,6.6-13.5,11.2-20.8,13.9
		c-10.1,3.7-22.1,5.6-36.2,5.6c-8.2,0-17.1-0.6-26.7-1.7c-9.6-1.1-17.7-3.4-24.2-6.8c-6.5-3.4-12.4-8.2-17.8-14.5s-9.1-12.7-11-19.3
		c-3.2-10.7-4.8-20.1-4.8-28.3V36.3h51.7v102.2c0,9.1,2.5,16.3,7.6,21.4c5.1,5.1,12.1,7.7,21.1,7.7c8.9,0,15.9-2.5,21-7.6
		c5.1-5.1,7.6-12.2,7.6-21.5V36.3z"/>
	<path d="M85.6,406.6V238.9H172c16,0,28.2,1.4,36.7,4.1s15.3,7.8,20.5,15.3c5.2,7.4,7.8,16.5,7.8,27.2c0,9.3-2,17.3-5.9,24.1
		c-4,6.7-9.4,12.2-16.4,16.4c-4.4,2.7-10.5,4.9-18.2,6.6c6.2,2.1,10.7,4.1,13.5,6.2c1.9,1.4,4.7,4.3,8.3,8.8c3.6,4.5,6,8,7.3,10.4
		l25.1,48.6H192l-27.7-51.2c-3.5-6.6-6.6-10.9-9.4-12.9c-3.7-2.6-8-3.9-12.7-3.9h-4.6v68H85.6z M137.7,306.9h21.8
		c2.4,0,6.9-0.8,13.7-2.3c3.4-0.7,6.2-2.4,8.4-5.3c2.2-2.8,3.3-6.1,3.3-9.7c0-5.4-1.7-9.6-5.1-12.5c-3.4-2.9-9.9-4.3-19.3-4.3h-22.8
		V306.9z"/>
	<path d="M84.4,441.6h68.1l26.3,102l26.1-102h68.1v167.6h-42.4V481.4l-32.7,127.8h-38.4l-32.6-127.8v127.8H84.4V441.6z"/>
</g>
</svg>
